<svg width="92" height="120" viewBox="0 0 92 120" fill="none" xmlns="http://www.w3.org/2000/svg">
<path d="M1 102L46 1.5L91 102H1Z" stroke="black"/>
<path d="M59.9422 54.1727L69.6652 71.7704C75.7413 82.7675 67.7871 96.25 55.2231 96.25H35.777C23.2129 96.25 15.2587 82.7675 21.3348 71.7704L31.0578 54.1727C37.3347 42.8121 53.6653 42.8122 59.9422 54.1727Z" fill="#C00000" stroke="black"/>
<path d="M51.0664 63.0938H52.1738V76.5879C52.1738 78.0736 51.8685 79.3132 51.2578 80.3066C50.6562 81.3001 49.8314 82.043 48.7832 82.5352C47.7441 83.0273 46.582 83.2734 45.2969 83.2734C43.9935 83.2734 42.8223 83.0273 41.7832 82.5352C40.7441 82.043 39.9193 81.3001 39.3086 80.3066C38.707 79.3132 38.4062 78.0736 38.4062 76.5879V63.0938H39.5137V76.5879C39.5137 77.8184 39.7643 78.8574 40.2656 79.7051C40.7669 80.5436 41.4551 81.1816 42.3301 81.6191C43.2051 82.0475 44.194 82.2617 45.2969 82.2617C46.3997 82.2617 47.3841 82.0475 48.25 81.6191C49.125 81.1816 49.8132 80.5436 50.3145 79.7051C50.8158 78.8574 51.0664 77.8184 51.0664 76.5879V63.0938Z" fill="black"/>
<path d="M36 85.7344H54.5664V87.1016H36V85.7344Z" fill="black"/>
</svg>
