<svg width="105" height="135" viewBox="0 0 105 135" fill="none" xmlns="http://www.w3.org/2000/svg">
<path d="M66.9422 52.1727L76.6652 69.7704C82.7413 80.7675 74.7871 94.25 62.2231 94.25H42.777C30.2129 94.25 22.2587 80.7675 28.3348 69.7704L38.0578 52.1727C44.3347 40.8121 60.6653 40.8122 66.9422 52.1727Z" fill="#C00000" stroke="black"/>
<path d="M7.80629 100.75L52.5 1.22057L97.1937 100.75H7.80629Z" stroke="black"/>
<path d="M58.0664 61.0938H59.1738V74.5879C59.1738 76.0736 58.8685 77.3132 58.2578 78.3066C57.6562 79.3001 56.8314 80.043 55.7832 80.5352C54.7441 81.0273 53.582 81.2734 52.2969 81.2734C50.9935 81.2734 49.8223 81.0273 48.7832 80.5352C47.7441 80.043 46.9193 79.3001 46.3086 78.3066C45.707 77.3132 45.4062 76.0736 45.4062 74.5879V61.0938H46.5137V74.5879C46.5137 75.8184 46.7643 76.8574 47.2656 77.7051C47.7669 78.5436 48.4551 79.1816 49.3301 79.6191C50.2051 80.0475 51.194 80.2617 52.2969 80.2617C53.3997 80.2617 54.3841 80.0475 55.25 79.6191C56.125 79.1816 56.8132 78.5436 57.3145 77.7051C57.8158 76.8574 58.0664 75.8184 58.0664 74.5879V61.0938Z" fill="black"/>
<path d="M43 83.7344H61.5664V85.1016H43V83.7344Z" fill="black"/>
</svg>
